<svg xmlns="http://www.w3.org/2000/svg" xmlns:xlink="http://www.w3.org/1999/xlink" version="1.1" x="0px" y="0px" viewBox="0 0 69 86.25" style="enable-background:new 0 0 69 69;" xml:space="preserve"><g><path d="M14.37305,41.25269l-7.00916,3.57605c1.7796,3.0174,3.34589,6.09064,4.76752,9.35529l7.02026-3.58118   C17.34503,47.52618,15.77539,44.45502,14.37305,41.25269z"/><path d="M15.23364,39.69159c0.34726-0.17824,0.47779-0.59928,0.3042-0.93848c-0.17679-0.34748-0.59901-0.47923-0.93945-0.30566   l-9.63184,4.91309c-0.34277,0.1748-0.47949,0.59668-0.30469,0.93945c0.17366,0.34134,0.59318,0.4834,0.93945,0.30566   l9.63184-4.91406H15.23364z"/><path d="M12.52869,55.10364c0.47467,1.12915,0.92969,2.25806,1.34998,3.36725c0.10046-0.05128,7.82741-3.99565,7.72485-3.94312   c-0.70447-1.06879-1.34705-2.08252-1.94067-3.06342L12.52869,55.10364z"/><path d="M13.07275,38.10339c-0.40833-1.0387-0.81171-2.11188-1.20093-3.21552l-8.18701,4.17578   c0.66504,0.96265,1.29718,1.91931,1.8988,2.85986L13.07275,38.10339z"/><path d="M34.6214,32.00629l-7.75763-1.38501c-0.40808,3.47217-1.02252,6.89166-1.85529,10.3338l7.77124,1.38904   C33.19159,38.82684,33.8006,35.40576,34.6214,32.00629z"/><path d="M21.8772,47.42303l11.60107,2.07324c0.40751,0.05719,0.69329-0.19391,0.74805-0.52246   c0.00049-0.00293,0.00098-0.00488,0.00146-0.00781c0.06372-0.35048-0.17016-0.68884-0.51367-0.74609l-11.60889-2.0752   c-0.41966-0.05357-0.70059,0.21077-0.75879,0.52344C21.28394,47.01776,21.52173,47.35858,21.8772,47.42303z"/><path d="M23.13159,22.35956c0.44922,0.24219,1.06055,0.11133,1.45117-0.31152l0.99786-1.08124   c1.60531-5.15388,1.15837-7.78307,3.84247-9.53497l1.5387-1.00336c-1.35406,0.1767-2.68964,0.81183-3.79114,1.85004   c-3.64746,3.43848-4.64453,9.04199-4.64941,9.09375C22.52222,21.76874,22.75562,22.15741,23.13159,22.35956z"/><path d="M23.8186,45.42987l8.52637,1.52539c0.08203-1.22107,0.1925-2.42273,0.31891-3.61603l-7.89172-1.41058   C24.47723,43.09131,24.16467,44.25635,23.8186,45.42987z"/><path d="M12.94751,60.07635c-0.29434,0.14684-0.46435,0.50341-0.27881,0.87793c0.15323,0.30846,0.54248,0.44403,0.86865,0.27734   l10.50244-5.35449c0.29509-0.14754,0.4648-0.50938,0.2793-0.87695c-0.16504-0.31934-0.55713-0.44824-0.8877-0.2832   C22.00106,55.46289,13.05308,60.02259,12.94751,60.07635z"/><path d="M41.31372,7.08319c-1.17822-0.45703-2.47754-0.36621-3.56396,0.25293c-2.04871,1.16646-4.61773,2.87161-4.55859,2.83301   c-0.00043,0.00031-0.00104,0.00018-0.00146,0.00049c-2.33558,1.75488-4.38239,2.17178-4.99854,4.5835l-1.65253,6.50598   l0.14954,1.53149c0.10242-0.06122,0.22015-0.09308,0.34039-0.07263l2.54602,0.45526   c0.32342-2.99043,0.27695-3.24224,0.53845-3.42596c0.05566-0.04004,1.19531-0.88574,1.43555-3.02832   c0.08936-0.79297,0.7334-1.40918,1.49902-1.33984c2.22921,0.1123,2.80498-2.13823,4.10303-2.24023   c1.13513-0.0887,1.20936,1.0772,2.84729,0.74072c-0.22046-1.2637-0.09149-4.11349,0.953-3.61377   c0.24854,0.11816,0.354,0.41504,0.23682,0.66406c-1.33672,2.89021,1.56268,6.56027,1.60486,6.66443   c0.00525,0.01282,0.01886,0.01947,0.02307,0.03284c0.00159,0.00513-0.00146,0.01013,0,0.01526   c0.02686,0.09369,0.02358,0.2057-0.0202,0.31549c-0.04609,0.11888-0.06348,0.11629-0.15167,0.2171   c-4.22116,3.71401-3.86992,1.90975-8.49902,7.5498c-0.47076,0.5736-0.52129,1.42352-0.0376,2.06348   c0.52686,0.69824,1.58691,0.82813,2.36426,0.29102c1.03776-0.63561,7.73296-6.0351,13.10889-6.67578   c1.59229-0.19043,2.86914-0.94336,3.65967-1.54102c0.88757-0.67017,1.87964-1.18158,2.94531-1.54364l-2.62738-7.94232   C51.27631,10.68713,45.74841,8.80682,41.31372,7.08319z"/><path d="M38.88354,17.133l2.47101,0.10339c-0.53851-0.84845-0.88818-1.6438-1.11292-2.37427   c-2.28693,0.50065-2.73514-1.25354-3.31122-0.57581c-1.01031,1.19104-1.97418,1.73706-2.7854,1.96057   C35.41153,16.87487,37.56455,17.67687,38.88354,17.133z"/><path d="M61.04858,4.98651l-7.41064,2.44727l0.70758,2.13892c0.00281,0.0058,0.00812,0.0094,0.01068,0.01538   c0.00659,0.01532,0.00494,0.03137,0.00995,0.04694l3.53839,10.69623l7.41064-2.44727L61.04858,4.98651z"/><path d="M32.54272,16.83026c-0.09552,0.85132-0.32172,1.52283-0.58026,2.06458c1.05731-0.39319,2.28497-0.75043,3.41852-1.03961   c-1.19281-0.40466-2.23602-0.98492-2.73627-1.28491C32.59161,16.64673,32.55328,16.73517,32.54272,16.83026z"/><path d="M36.48022,29.9035c-3.12566-0.55813-5.90119-1.05374-10.63721-1.89941c-0.4372-0.06246-0.74689,0.22631-0.8125,0.57129   c-0.06836,0.37109,0.18701,0.7334,0.56982,0.80469c0.10639,0.01909,10.64148,1.91113,10.76904,1.91113   c0.3418,0,0.62012-0.23535,0.67676-0.57227c0.00049-0.00293,0.00098-0.00488,0.00146-0.00781   C37.11626,30.34098,36.87618,29.97512,36.48022,29.9035z"/><path d="M34.71606,50.73553c-7.59445-1.35838,6.75482,1.20831-14.43994-2.58301c-0.41675-0.04763-0.69529,0.21962-0.74707,0.52441   c-0.06445,0.35938,0.16895,0.69922,0.51953,0.7627l14.43848,2.58301c0.42034,0.05366,0.69871-0.20381,0.75879-0.53125   C35.30998,51.13716,35.07167,50.79964,34.71606,50.73553z"/><path d="M27.20251,27.23145l6.05688,1.08118c-0.71558-1.01422-0.62669-2.32133,0.11243-3.22162   c0.04865-0.05945,0.11115-0.1319,0.16248-0.19397l-6.11707-1.09412c-0.01074,0.24219-0.02246,0.48438-0.03467,0.72559   c-0.00128,0.0249-0.00299,0.04688-0.00427,0.07172c0,0.00055,0.00037,0.00098,0.00037,0.00153   c0,0.00122-0.00067,0.0022-0.00067,0.00342C27.32898,25.53595,27.26978,26.39111,27.20251,27.23145z"/><path d="M25.77808,56.11639l-13.06396,6.66406c-0.31078,0.16306-0.45761,0.54474-0.29053,0.87891   c0.16064,0.31641,0.55762,0.44629,0.88428,0.28418l13.06006-6.66211c0.28715-0.15072,0.46717-0.50999,0.27979-0.88477   C26.49015,56.08156,26.09973,55.95049,25.77808,56.11639z"/></g></svg>
